<svg width="20" height="20" viewBox="0 0 20 20" fill="none" xmlns="http://www.w3.org/2000/svg">
<path d="M13.8589 0.0293884C13.5894 0.0879822 13.1558 0.318451 12.98 0.498138C12.8394 0.64267 12.8238 0.677826 12.8238 0.849701C12.8238 1.02158 12.8394 1.06064 12.9605 1.17392C13.1441 1.35361 15.3863 2.75986 15.5269 2.7872C15.687 2.81845 15.9136 2.71298 16.0034 2.56454C16.2183 2.20908 16.187 1.50986 15.9292 1.00986L15.8472 0.841888L15.9683 0.916107C16.1597 1.02548 16.355 1.26376 16.4917 1.54892L16.6128 1.80673L16.6245 4.83798L16.6363 7.86923L16.1558 8.29111C15.3472 8.99814 14.4214 9.68564 13.6284 10.1661C13.2144 10.4161 12.3628 10.8731 12.1128 10.9825L11.9449 11.0567L11.773 10.8966C11.355 10.5138 10.7066 10.3614 10.148 10.5177C9.69876 10.6466 9.64407 10.6388 9.40579 10.463C8.76126 9.97861 8.06594 9.90829 7.38626 10.2677C7.2261 10.3536 7.05423 10.42 7.00735 10.42C6.95657 10.42 6.78469 10.3575 6.62454 10.2833C6.26126 10.1114 5.82766 10.0138 5.53469 10.045C5.32376 10.0645 5.31594 10.0606 5.16751 9.9122C4.78469 9.52158 4.15969 9.47861 3.71438 9.81845C3.54641 9.94736 3.35891 10.2755 3.32766 10.4981L3.30423 10.6739L3.05032 10.6817C2.49954 10.6974 1.94876 10.9981 1.63235 11.4552L1.51907 11.6192H1.2261C0.976101 11.6192 0.897976 11.6349 0.679226 11.7442C-0.152805 12.1544 -0.238743 13.295 0.522976 13.8302C0.608913 13.8888 0.870632 13.9981 1.10501 14.0685L1.53469 14.1935L1.55813 15.2481C1.58548 16.4161 1.60501 16.5333 1.86673 17.0802C2.32376 18.0294 3.24563 18.7364 4.24563 18.9005L4.52298 18.9474V19.1388C4.52298 19.4747 4.6636 19.713 4.93313 19.838C5.14016 19.9356 5.97219 19.9435 6.19094 19.8536C6.4761 19.7325 6.63235 19.4942 6.63235 19.17V18.9747H9.79641H12.9605V19.17C12.9605 19.4942 13.1167 19.7325 13.4019 19.8536C13.6206 19.9435 14.4527 19.9356 14.6597 19.838C14.9292 19.7169 15.0699 19.4747 15.0699 19.1388V18.9513L15.398 18.8888C16.6284 18.6583 17.6636 17.6661 17.9605 16.4356C18.0347 16.1153 18.0386 15.9864 18.0386 13.006V9.90829L18.7222 9.23642C19.5113 8.45908 19.5777 8.35751 19.5777 7.88095C19.5855 7.28329 19.2378 6.83408 18.6597 6.68564C18.1909 6.56454 17.8003 6.70517 17.3472 7.15829C17.187 7.31845 17.0464 7.45126 17.0386 7.45126C17.0308 7.45126 17.023 6.18954 17.023 4.64658C17.023 1.59189 17.0269 1.67392 16.8003 1.2247C16.5659 0.759857 15.9683 0.349701 15.4214 0.26767C15.2808 0.248138 15.0542 0.185638 14.9136 0.127045C14.6324 0.00595093 14.1714 -0.0331116 13.8589 0.0293884ZM14.8863 0.54892C15.3589 0.783295 15.687 1.26376 15.7261 1.77939C15.7456 2.06454 15.6831 2.37314 15.605 2.37314C15.5191 2.36923 13.2534 0.908295 13.2534 0.853607C13.2534 0.76767 13.5074 0.584076 13.7417 0.498138C14.062 0.377045 14.5855 0.404388 14.8863 0.54892ZM18.7456 7.15048C19.1206 7.3497 19.2808 7.82626 19.0972 8.20908C18.9995 8.40829 18.0894 9.31064 17.3745 9.92001C14.4097 12.4356 11.3316 13.8419 7.84329 14.2755C7.13235 14.3614 5.10501 14.3731 4.38626 14.295C2.91751 14.131 0.983913 13.6856 0.690945 13.4395C0.429226 13.2169 0.347195 12.7872 0.503445 12.4669C0.640163 12.1778 0.983914 11.9903 1.29641 12.0333C1.38235 12.045 1.72219 12.127 2.04641 12.213C2.77298 12.4083 3.63235 12.5802 4.32766 12.6739C5.07376 12.7716 7.13626 12.7716 7.84329 12.6739C9.64016 12.4161 11.0659 11.9786 12.6089 11.2013C13.3199 10.8458 13.6519 10.6544 14.3863 10.1661C15.4566 9.45908 16.3706 8.71298 17.355 7.74423C17.6636 7.43954 17.9683 7.17392 18.0581 7.13486C18.2769 7.03329 18.5347 7.04111 18.7456 7.15048ZM4.67923 10.0763C4.78469 10.131 4.89798 10.2325 4.96438 10.3341L5.07766 10.502L5.43704 10.4747C5.87454 10.4435 6.10891 10.4864 6.51126 10.6817C6.92923 10.8849 7.10891 10.881 7.54251 10.6583C8.12454 10.3614 8.59719 10.3927 9.11282 10.7716C9.48782 11.0411 9.69094 11.0841 10.0738 10.9669C10.4409 10.8536 10.7964 10.8536 11.0855 10.963C11.2964 11.0411 11.5542 11.2169 11.5152 11.252C11.5034 11.2599 11.312 11.338 11.0855 11.4278C8.44485 12.4435 5.6011 12.627 2.74563 11.963C1.95657 11.7794 1.92923 11.7677 1.98001 11.6778C2.05032 11.545 2.34329 11.3106 2.56594 11.2091C2.78469 11.1075 3.09719 11.0802 3.51907 11.1231C3.6011 11.131 3.68704 11.1153 3.71438 11.088C3.74173 11.0606 3.75735 10.9161 3.76126 10.7208C3.76126 10.4474 3.77298 10.381 3.85501 10.2677C3.96048 10.1231 4.20657 9.99423 4.38626 9.99033C4.45266 9.99033 4.58548 10.0294 4.67923 10.0763ZM17.5933 16.1427C17.4058 17.2403 16.6441 18.088 15.5386 18.4356L15.2456 18.5255H9.79641H4.34719L4.05423 18.4356C3.23391 18.1778 2.61673 17.6583 2.25344 16.9239C1.99954 16.4083 1.9761 16.256 1.95657 15.2091C1.93704 14.3614 1.94094 14.2794 1.99954 14.2989C2.14407 14.3575 3.26126 14.5645 3.80032 14.6349C8.6011 15.2716 13.3199 13.838 17.2769 10.545L17.6284 10.252L17.6402 13.0411C17.648 15.2794 17.6363 15.8927 17.5933 16.1427ZM6.2261 19.1583C6.18704 19.4513 6.12454 19.4825 5.57376 19.4825C5.01907 19.4825 4.95266 19.4474 4.95266 19.1505V18.9747H5.6011H6.25344L6.2261 19.1583ZM14.6402 19.1505C14.6402 19.4474 14.5738 19.4825 14.0034 19.4825C13.4449 19.4825 13.4058 19.463 13.3667 19.1583L13.3394 18.9747H13.9917H14.6402V19.1505Z" fill="black"/>
</svg>
